<svg xmlns="http://www.w3.org/2000/svg" width="262.018" height="24" viewBox="0 0 262.018 24"><defs><style>.a,.c{opacity:0.7;}.b{fill:none;stroke:#fff;stroke-linecap:round;stroke-width:2px;}.c{fill:#fff;font-size:19px;font-family:Piedra-Regular, Piedra;}</style></defs><g transform="translate(-210.494 -878)"><g transform="translate(5.511)"><g class="a" transform="matrix(0.998, -0.07, 0.07, 0.998, 411.623, 881.554)"><line class="b" x1="7.026" y2="13.236" transform="translate(3.826 1.359)"/><line class="b" x2="5.692" y2="14.53" transform="translate(4.493 0.712)"/><line class="b" x2="5.985" y2="0.419" transform="translate(4.381 7.269)"/><line class="b" x2="5.985" y2="0.419" transform="translate(4.241 9.264)"/></g><g class="a" transform="translate(434.253 884.341) rotate(83)"><line class="b" x1="0.569" y2="5.234" transform="translate(2.847 0)"/><line class="b" x1="0.569" y2="5.234" transform="translate(5.703 -0.15)"/></g><text class="c" transform="translate(453 896)"><tspan x="-13.908" y="0">100</tspan></text></g><g transform="translate(4.511)"><g class="a" transform="matrix(0.998, -0.07, 0.07, 0.998, 273.623, 881.554)"><line class="b" x1="7.026" y2="13.236" transform="translate(3.826 1.359)"/><line class="b" x2="5.692" y2="14.53" transform="translate(4.493 0.712)"/></g><text class="c" transform="translate(309 896)"><tspan x="-8.769" y="0">10</tspan></text><g class="a" transform="translate(295.253 885.341) rotate(83)"><line class="b" x1="0.569" y2="5.234" transform="translate(2.847 0)"/><line class="b" x1="0.569" y2="5.234" transform="translate(5.703 -0.15)"/></g></g><g transform="translate(3.511)"><g class="a" transform="matrix(0.998, -0.07, 0.07, 0.998, 342.623, 881.554)"><line class="b" x1="7.026" y2="13.236" transform="translate(3.826 1.359)"/><line class="b" x2="5.692" y2="14.53" transform="translate(4.493 0.712)"/><line class="b" x2="5.985" y2="0.419" transform="translate(4.311 8.267)"/></g><text class="c" transform="translate(380 896)"><tspan x="-9.832" y="0">50</tspan></text><g class="a" transform="translate(364.253 885.341) rotate(83)"><line class="b" x1="0.569" y2="5.234" transform="translate(2.847 0)"/><line class="b" x1="0.569" y2="5.234" transform="translate(5.703 -0.15)"/></g></g><g transform="translate(5.773)"><g class="a" transform="translate(206.227 882.554) rotate(-7)"><line class="b" x1="0.569" y2="15.371" transform="translate(2.847 0)"/><line class="b" x1="0.569" y2="15.371" transform="translate(5.693 0)"/><line class="b" x1="0.569" y2="15.371" transform="translate(8.54 0)"/><line class="b" x1="0.569" y2="15.371" transform="translate(11.386 0)"/><line class="b" x1="14.802" y2="14.233" transform="translate(0 0.569)"/></g><text class="c" transform="translate(244 896)"><tspan x="-4.693" y="0">5</tspan></text><g class="a" transform="translate(231.253 885.341) rotate(83)"><line class="b" x1="0.569" y2="5.234" transform="translate(2.847 0)"/><line class="b" x1="0.569" y2="5.234" transform="translate(5.703 -0.15)"/></g></g></g></svg>