<?xml version="1.0" encoding="utf-8"?>
<!-- Generator: Adobe Illustrator 24.2.1, SVG Export Plug-In . SVG Version: 6.00 Build 0)  -->
<svg version="1.1" id="Calque_1" xmlns="http://www.w3.org/2000/svg" xmlns:xlink="http://www.w3.org/1999/xlink" x="0px" y="0px"
	 viewBox="0 0 14.9 18.9" style="enable-background:new 0 0 14.9 18.9;" xml:space="preserve">
<style type="text/css">
	.st0{opacity:0.3;}
</style>
<g transform="translate(-714.006 -6839.963)" class="st0">
	<g transform="translate(714.006 6839.963)">
		<path d="M10.7,2.1c0.5-0.7,1.4-0.8,2.1-0.3c0.4,0.3,0.6,0.7,0.6,1.2c0,0.3,0.2,0.5,0.5,0.5s0.5-0.2,0.5-0.5c0-1.4-1.1-2.5-2.5-2.5
			c-0.8,0-1.5,0.4-2,1L9.8,1.7c0,0,0,0,0,0.1L9.5,2.2C9.1,2,8.6,1.9,8.1,1.9C7.6,2,7,2.3,6.7,2.8l0,0L0.5,15.3
			c-0.5,0.9,0.3,2.2,1.6,2.9c0.5,0.3,1.1,0.4,1.6,0.4c0.7,0.1,1.3-0.3,1.6-0.8l6.2-12.5l0,0c0.4-0.8-0.1-1.9-1.2-2.6l0.2-0.3
			L10.7,2.1z M4.5,17.3c-0.2,0.3-1.1,0.4-1.9,0s-1.4-1.2-1.2-1.5L7,4.5C7.3,5,7.8,5.4,8.4,5.7C8.9,5.9,9.4,6.1,10,6.1
			c0,0,0.1,0,0.1,0L4.5,17.3z M10.7,4.8c-0.1,0.2-0.4,0.3-0.6,0.3C9.7,5.1,9.2,5,8.8,4.8C7.9,4.3,7.5,3.6,7.6,3.2C7.8,3,8,2.9,8.2,3
			c0,0,0.1,0,0.1,0c0.3,0,0.5,0,0.7,0.1L9,3.3C8.9,3.5,9,3.8,9.2,4c0.2,0.1,0.6,0,0.7-0.2L10,3.5C10.6,4,10.9,4.5,10.7,4.8z"/>
	</g>
</g>
</svg>
