<svg xmlns="http://www.w3.org/2000/svg" width="33.095" height="24.739" viewBox="0 0 33.095 24.739"><defs><style>.a{opacity:0.3;}</style></defs><g class="a" transform="translate(0)"><g transform="translate(0 0)"><g transform="translate(0 11.154) rotate(-22)"><g transform="translate(0 0)"><path d="M13.267,0a1.376,1.376,0,0,0-1.446,1.1H11c-.276.109-.265.221-.324.458l-.617.24a4.474,4.474,0,0,0-2.3-.7.347.347,0,0,0-.3.283.4.4,0,0,0,.159.4A4.12,4.12,0,0,1,9.15,2.931a.371.371,0,0,0-.415.366v.435a8.547,8.547,0,0,0-5.26,3.114A21.943,21.943,0,0,0,.017,14.16a.382.382,0,0,0,.3.492H6.794a.367.367,0,0,0,.324-.4,10.019,10.019,0,0,1,.566-4.8A2.835,2.835,0,0,1,9.434,7.83a5.885,5.885,0,0,0,.425,1.855c.311.7.8,1.3,1.467,1.3h1.942a1.73,1.73,0,0,0,1.3-.87,3.608,3.608,0,0,0,.607-1.9l.233-.526h2.063a.361.361,0,0,0,.324-.366V6.182a1.354,1.354,0,0,0,.92-.389,1.738,1.738,0,0,0,.334-1.03h7.809a.361.361,0,0,0,.324-.366V4.03h2.266a.361.361,0,0,0,.324-.366V1.1a.361.361,0,0,0-.324-.366h-.192L29.036.47A.3.3,0,0,0,28.7.378l-.961.355H19.093A.361.361,0,0,0,18.77.367h-.647A.361.361,0,0,0,17.8,0Zm0,.733h4.208A.361.361,0,0,0,17.8,1.1h.324V4.03H16.828V3.3H13.591V4.03h-.324c-.638-.024-.963-.393-.971-1.1V1.6A.953.953,0,0,1,13.267.733Zm.324.366v.733h3.237V1.1Zm5.179.366c3.56,0,7.127,0,10.358,0V3.3H18.77Zm-7.445.366h.324v1.1a1.68,1.68,0,0,0,1.618,1.832h5.159a.941.941,0,0,1-.172.515c-.111.125-.329.218-.779.218a.361.361,0,0,0-.324.366v1.1H15.179a5.278,5.278,0,0,0-2.549-.572,8.786,8.786,0,0,0-3.024.584A3.555,3.555,0,0,0,7.117,9.124a10.471,10.471,0,0,0-.637,4.8H.806A20.669,20.669,0,0,1,3.961,7.338,7.881,7.881,0,0,1,9.11,4.384a.367.367,0,0,0,.273-.355V3.663h.324a.382.382,0,0,0,.3-.492,2.543,2.543,0,0,0-.394-.813,1.135,1.135,0,0,0,.516.183l.971-.366c.159-.077.171-.234.223-.343ZM12.64,7.143a4.956,4.956,0,0,1,2.1.4,1.686,1.686,0,0,0-.182.515,2.807,2.807,0,0,1-.5,1.6,1.306,1.306,0,0,1-.8.6H11.325c-.306,0-.624-.326-.88-.9a5.326,5.326,0,0,1-.394-1.763,8.38,8.38,0,0,1,1.113-.309,2.247,2.247,0,0,0,.971,2.244,3.641,3.641,0,0,1-.061-2.358c.193-.015.393-.018.566-.023Z"/></g></g></g></g></svg>