<svg xmlns="http://www.w3.org/2000/svg" width="138.084" height="18.62" viewBox="0 0 138.084 18.62"><defs><style>.a{opacity:0.7;}.b{fill:none;stroke:#fff;stroke-linecap:round;stroke-width:2px;}</style></defs><g transform="translate(-354.091 -806.785)"><g class="a" transform="matrix(0.998, -0.07, 0.07, 0.998, 486.59, 808.129)"><line class="b" x1="0.569" y2="15.371" transform="translate(2.847 0)"/></g><g class="a" transform="matrix(0.998, -0.07, 0.07, 0.998, 351.623, 808.554)"><line class="b" x1="7.026" y2="13.236" transform="translate(3.826 1.359)"/><line class="b" x2="5.692" y2="14.53" transform="translate(4.493 0.712)"/><line class="b" x2="5.985" y2="0.419" transform="translate(4.381 7.269)"/><line class="b" x2="5.985" y2="0.419" transform="translate(4.241 9.264)"/></g><g class="a" transform="matrix(0.998, -0.07, 0.07, 0.998, 365.623, 808.554)"><line class="b" x1="7.026" y2="13.236" transform="translate(3.826 1.359)"/><line class="b" x2="5.692" y2="14.53" transform="translate(4.493 0.712)"/><line class="b" x2="5.985" y2="0.419" transform="translate(4.381 7.269)"/><line class="b" x2="5.985" y2="0.419" transform="translate(4.241 9.264)"/></g><g class="a" transform="matrix(0.998, -0.07, 0.07, 0.998, 379.623, 808.554)"><line class="b" x1="7.026" y2="13.236" transform="translate(3.826 1.359)"/><line class="b" x2="5.692" y2="14.53" transform="translate(4.493 0.712)"/><line class="b" x2="5.985" y2="0.419" transform="translate(4.381 7.269)"/><line class="b" x2="5.985" y2="0.419" transform="translate(4.241 9.264)"/></g><g class="a" transform="matrix(0.998, -0.07, 0.07, 0.998, 393.623, 808.554)"><line class="b" x1="7.026" y2="13.236" transform="translate(3.826 1.359)"/><line class="b" x2="5.692" y2="14.53" transform="translate(4.493 0.712)"/><line class="b" x2="5.985" y2="0.419" transform="translate(4.311 8.267)"/></g><g class="a" transform="matrix(0.998, -0.07, 0.07, 0.998, 407.623, 808.554)"><line class="b" x1="7.026" y2="13.236" transform="translate(3.826 1.359)"/><line class="b" x2="5.692" y2="14.53" transform="translate(4.493 0.712)"/></g><g class="a" transform="matrix(0.998, -0.07, 0.07, 0.998, 421.623, 808.554)"><line class="b" x1="7.026" y2="13.236" transform="translate(3.826 1.359)"/><line class="b" x2="5.692" y2="14.53" transform="translate(4.493 0.712)"/></g><g class="a" transform="matrix(0.998, -0.07, 0.07, 0.998, 435.623, 808.554)"><line class="b" x1="7.026" y2="13.236" transform="translate(3.826 1.359)"/><line class="b" x2="5.692" y2="14.53" transform="translate(4.493 0.712)"/></g><g class="a" transform="matrix(0.998, -0.07, 0.07, 0.998, 449.623, 808.554)"><line class="b" x1="7.026" y2="13.236" transform="translate(3.826 1.359)"/><line class="b" x2="5.692" y2="14.53" transform="translate(4.493 0.712)"/></g><g class="a" transform="matrix(0.998, -0.07, 0.07, 0.998, 467.59, 809.129)"><line class="b" x1="0.569" y2="15.371" transform="translate(2.847 0)"/><line class="b" x1="0.569" y2="15.371" transform="translate(5.693 0)"/><line class="b" x1="0.569" y2="15.371" transform="translate(8.54 0)"/><line class="b" x1="0.569" y2="15.371" transform="translate(11.386 0)"/><line class="b" x1="14.802" y2="14.233" transform="translate(0 0.569)"/></g></g></svg>