<?xml version="1.0" encoding="utf-8"?>
<!-- Generator: Adobe Illustrator 24.2.1, SVG Export Plug-In . SVG Version: 6.00 Build 0)  -->
<svg version="1.1" id="Calque_1" xmlns="http://www.w3.org/2000/svg" xmlns:xlink="http://www.w3.org/1999/xlink" x="0px" y="0px"
	 viewBox="0 0 19.9 21.1" style="enable-background:new 0 0 19.9 21.1;" xml:space="preserve">
<style type="text/css">
	.st0{opacity:0.3;}
</style>
<g transform="translate(0 0)" class="st0">
	<path d="M19.5,18.5l-4.2-4.2c0.5-0.8,1-2.1,0.3-2.9c-0.8-0.8-2.1-0.2-2.8,0.3L1.5,0.5C0.8-0.3,0.2,1.7,0.2,2.2c0,1,0.5,1.9,1.2,2.6
		l9.1,9.1c-0.5,0.7-1,2-0.4,2.8c0.7,0.9,2.1,0.3,2.9-0.2l4.2,4.2c0.2,0.2,0.5,0.2,0.6,0l1.6-1.6C19.6,18.9,19.6,18.6,19.5,18.5
		L19.5,18.5z M14.8,16.9h1.7c0,0,0.1,0,0.1,0l0.5,0.5h-1.9L14.8,16.9L14.8,16.9z M13.9,16l0.9-0.9l1,1H14L13.9,16L13.9,16z M1.3,1.5
		l11.8,11.8l-0.9,0.9l-0.7-0.7l0,0L2,4.1C1.3,3.5,1,2.4,1.3,1.5z M10.9,16.1c-0.2-0.2-0.1-0.8,0.3-1.6l0.6,0.6
		c0.2,0.2,0.5,0.2,0.6,0l1.6-1.6c0.2-0.2,0.2-0.5,0-0.6l-0.6-0.6c0.3-0.2,1.5-0.8,1.7-0.1c0,0.7-0.2,1.3-0.6,1.8
		c-0.5,0.8-1.2,1.4-2,1.9C12.1,16,11.2,16.5,10.9,16.1L10.9,16.1z M17.6,19.7l-1.4-1.4H18c0,0,0.1,0,0.1,0l0.4,0.4L17.6,19.7
		L17.6,19.7z"/>
</g>
</svg>
