<svg xmlns="http://www.w3.org/2000/svg" width="43.382" height="32.429" viewBox="0 0 43.382 32.429"><g transform="translate(-632.815 -72.564)"><g transform="translate(632.815 72.564)"><g transform="translate(-14.947 -11.696) rotate(-22)"><g transform="translate(4 30)"><path d="M21.391,982.362a1.8,1.8,0,0,0-1.9,1.441H18.421c-.361.143-.347.289-.424.6l-.809.315a5.865,5.865,0,0,0-3.01-.915.455.455,0,0,0-.394.37.521.521,0,0,0,.208.53,5.4,5.4,0,0,1,2,1.5.486.486,0,0,0-.544.48v.57a11.2,11.2,0,0,0-6.895,4.081c-1.864,2.3-3.252,5.477-4.534,9.588a.5.5,0,0,0,.4.645h8.486a.481.481,0,0,0,.424-.525,13.133,13.133,0,0,1,.742-6.287,3.717,3.717,0,0,1,2.294-2.131,7.714,7.714,0,0,0,.557,2.431c.407.922,1.05,1.711,1.923,1.711h2.546a2.267,2.267,0,0,0,1.71-1.14,4.729,4.729,0,0,0,.8-2.491l.3-.69h2.7a.473.473,0,0,0,.424-.48v-1.5a1.775,1.775,0,0,0,1.207-.51,2.279,2.279,0,0,0,.438-1.35H39.211a.473.473,0,0,0,.424-.48v-.48H42.6a.473.473,0,0,0,.424-.48V983.8a.473.473,0,0,0-.424-.48h-.252l-.292-.345a.4.4,0,0,0-.438-.12l-1.26.465H29.028a.473.473,0,0,0-.424-.48h-.849a.473.473,0,0,0-.424-.48Zm0,.96h5.516a.473.473,0,0,0,.424.48h.424v3.841h-1.7v-.96H21.815v.96h-.424c-.836-.031-1.262-.515-1.273-1.44v-1.741A1.249,1.249,0,0,1,21.391,983.323Zm.424.48v.96h4.243v-.96Zm6.788.48c4.667-.006,9.342-.006,13.577-.006v2.407H28.6Zm-9.758.48h.424V986.2a2.2,2.2,0,0,0,2.121,2.4h6.762a1.234,1.234,0,0,1-.225.675c-.145.164-.432.285-1.021.285a.473.473,0,0,0-.424.48v1.44H23.9a6.919,6.919,0,0,0-3.341-.75,11.518,11.518,0,0,0-3.964.765,4.66,4.66,0,0,0-3.262,2.821,13.725,13.725,0,0,0-.835,6.287H5.056a27.093,27.093,0,0,1,4.137-8.628,10.33,10.33,0,0,1,6.749-3.871.481.481,0,0,0,.358-.465v-.48h.424a.5.5,0,0,0,.4-.645,3.334,3.334,0,0,0-.517-1.065,1.487,1.487,0,0,0,.676.24l1.273-.48c.208-.1.224-.306.292-.45Zm1.724,6.962a6.5,6.5,0,0,1,2.758.525,2.209,2.209,0,0,0-.239.675,3.68,3.68,0,0,1-.65,2.1,1.712,1.712,0,0,1-1.047.78H18.845c-.4,0-.818-.427-1.154-1.185a6.981,6.981,0,0,1-.517-2.311,10.986,10.986,0,0,1,1.458-.405,2.946,2.946,0,0,0,1.273,2.941,4.772,4.772,0,0,1-.08-3.091c.253-.02.515-.024.742-.03Z" transform="translate(-4 -982.362)"/></g></g></g></g></svg>